<mxfile host="Electron" agent="Mozilla/5.0 (Windows NT 10.0; Win64; x64) AppleWebKit/537.36 (KHTML, like Gecko) draw.io/24.7.17 Chrome/128.0.6613.36 Electron/32.0.1 Safari/537.36" version="24.7.17">
  <diagram name="Page-1" id="oOQyECgegCbjC6rX9ri6">
    <mxGraphModel dx="737" dy="365" grid="1" gridSize="10" guides="1" tooltips="1" connect="1" arrows="1" fold="1" page="1" pageScale="1" pageWidth="850" pageHeight="1100" math="0" shadow="0">
      <root>
        <mxCell id="0" />
        <mxCell id="1" parent="0" />
        <mxCell id="Xo_48Wn3REnxUdT8pBd--1" value="" style="endArrow=none;html=1;rounded=0;" parent="1" edge="1">
          <mxGeometry width="50" height="50" relative="1" as="geometry">
            <mxPoint x="390" y="200" as="sourcePoint" />
            <mxPoint x="390" y="120" as="targetPoint" />
          </mxGeometry>
        </mxCell>
        <mxCell id="Xo_48Wn3REnxUdT8pBd--2" value="" style="endArrow=none;html=1;rounded=0;" parent="1" source="Xo_48Wn3REnxUdT8pBd--5" edge="1">
          <mxGeometry width="50" height="50" relative="1" as="geometry">
            <mxPoint x="390" y="160" as="sourcePoint" />
            <mxPoint x="500" y="160" as="targetPoint" />
          </mxGeometry>
        </mxCell>
        <mxCell id="Xo_48Wn3REnxUdT8pBd--3" value="&lt;b&gt;&lt;u&gt;17&lt;/u&gt;25&lt;/b&gt;" style="text;html=1;align=center;verticalAlign=middle;whiteSpace=wrap;rounded=0;" parent="1" vertex="1">
          <mxGeometry x="320" y="130" width="60" height="30" as="geometry" />
        </mxCell>
        <mxCell id="Xo_48Wn3REnxUdT8pBd--4" value="10" style="text;html=1;align=center;verticalAlign=middle;whiteSpace=wrap;rounded=0;" parent="1" vertex="1">
          <mxGeometry x="395" y="130" width="60" height="30" as="geometry" />
        </mxCell>
        <mxCell id="Xo_48Wn3REnxUdT8pBd--6" value="" style="endArrow=none;html=1;rounded=0;" parent="1" target="Xo_48Wn3REnxUdT8pBd--5" edge="1">
          <mxGeometry width="50" height="50" relative="1" as="geometry">
            <mxPoint x="390" y="160" as="sourcePoint" />
            <mxPoint x="500" y="160" as="targetPoint" />
          </mxGeometry>
        </mxCell>
        <mxCell id="Xo_48Wn3REnxUdT8pBd--5" value="&lt;font color=&quot;#008f00&quot;&gt;&lt;b&gt;172&lt;/b&gt;&lt;/font&gt;" style="text;html=1;align=center;verticalAlign=middle;whiteSpace=wrap;rounded=0;" parent="1" vertex="1">
          <mxGeometry x="390" y="160" width="110" height="30" as="geometry" />
        </mxCell>
        <mxCell id="Xo_48Wn3REnxUdT8pBd--7" value="" style="endArrow=none;html=1;rounded=0;exitX=0;exitY=0;exitDx=0;exitDy=0;entryX=1;entryY=0;entryDx=0;entryDy=0;" parent="1" source="Xo_48Wn3REnxUdT8pBd--5" target="Xo_48Wn3REnxUdT8pBd--5" edge="1">
          <mxGeometry width="50" height="50" relative="1" as="geometry">
            <mxPoint x="530" y="240" as="sourcePoint" />
            <mxPoint x="580" y="190" as="targetPoint" />
          </mxGeometry>
        </mxCell>
        <mxCell id="Xo_48Wn3REnxUdT8pBd--8" value="10" style="text;html=1;align=center;verticalAlign=middle;whiteSpace=wrap;rounded=0;" parent="1" vertex="1">
          <mxGeometry x="311" y="145" width="60" height="30" as="geometry" />
        </mxCell>
        <mxCell id="Xo_48Wn3REnxUdT8pBd--9" value="" style="endArrow=none;html=1;rounded=0;" parent="1" edge="1">
          <mxGeometry width="50" height="50" relative="1" as="geometry">
            <mxPoint x="330" y="170" as="sourcePoint" />
            <mxPoint x="380" y="170" as="targetPoint" />
          </mxGeometry>
        </mxCell>
        <mxCell id="Xo_48Wn3REnxUdT8pBd--10" value="-" style="text;html=1;align=center;verticalAlign=middle;whiteSpace=wrap;rounded=0;" parent="1" vertex="1">
          <mxGeometry x="300" y="140" width="40" height="30" as="geometry" />
        </mxCell>
        <mxCell id="Xo_48Wn3REnxUdT8pBd--14" value="7" style="text;html=1;align=center;verticalAlign=middle;whiteSpace=wrap;rounded=0;" parent="1" vertex="1">
          <mxGeometry x="325.5" y="175" width="24.5" height="30" as="geometry" />
        </mxCell>
        <mxCell id="Xo_48Wn3REnxUdT8pBd--17" value="&lt;b&gt;2&lt;/b&gt;" style="text;html=1;align=center;verticalAlign=middle;whiteSpace=wrap;rounded=0;" parent="1" vertex="1">
          <mxGeometry x="337.75" y="175" width="24.5" height="30" as="geometry" />
        </mxCell>
        <mxCell id="Xo_48Wn3REnxUdT8pBd--18" value="70" style="text;html=1;align=center;verticalAlign=middle;whiteSpace=wrap;rounded=0;" parent="1" vertex="1">
          <mxGeometry x="311" y="190" width="60" height="30" as="geometry" />
        </mxCell>
        <mxCell id="Xo_48Wn3REnxUdT8pBd--19" value="" style="endArrow=none;html=1;rounded=0;" parent="1" edge="1">
          <mxGeometry width="50" height="50" relative="1" as="geometry">
            <mxPoint x="325.5" y="219" as="sourcePoint" />
            <mxPoint x="375.5" y="219" as="targetPoint" />
          </mxGeometry>
        </mxCell>
        <mxCell id="Xo_48Wn3REnxUdT8pBd--20" value="2" style="text;html=1;align=center;verticalAlign=middle;whiteSpace=wrap;rounded=0;" parent="1" vertex="1">
          <mxGeometry x="328.75" y="220" width="24.5" height="30" as="geometry" />
        </mxCell>
        <mxCell id="Xo_48Wn3REnxUdT8pBd--22" value="&lt;b&gt;5&lt;/b&gt;" style="text;html=1;align=center;verticalAlign=middle;whiteSpace=wrap;rounded=0;" parent="1" vertex="1">
          <mxGeometry x="337.75" y="220" width="24.5" height="30" as="geometry" />
        </mxCell>
        <mxCell id="Xo_48Wn3REnxUdT8pBd--23" value="20" style="text;html=1;align=center;verticalAlign=middle;whiteSpace=wrap;rounded=0;" parent="1" vertex="1">
          <mxGeometry x="320" y="240" width="60" height="30" as="geometry" />
        </mxCell>
        <mxCell id="Xo_48Wn3REnxUdT8pBd--24" value="" style="endArrow=none;html=1;rounded=0;" parent="1" edge="1">
          <mxGeometry width="50" height="50" relative="1" as="geometry">
            <mxPoint x="320" y="269" as="sourcePoint" />
            <mxPoint x="370" y="269" as="targetPoint" />
          </mxGeometry>
        </mxCell>
        <mxCell id="Xo_48Wn3REnxUdT8pBd--25" value="&lt;b&gt;&lt;font color=&quot;#ff2d0d&quot;&gt;5&lt;/font&gt;&lt;/b&gt;" style="text;html=1;align=center;verticalAlign=middle;whiteSpace=wrap;rounded=0;" parent="1" vertex="1">
          <mxGeometry x="340" y="270" width="24.5" height="30" as="geometry" />
        </mxCell>
        <mxCell id="Xo_48Wn3REnxUdT8pBd--26" value="-" style="text;html=1;align=center;verticalAlign=middle;whiteSpace=wrap;rounded=0;" parent="1" vertex="1">
          <mxGeometry x="310" y="180" width="40" height="30" as="geometry" />
        </mxCell>
        <mxCell id="Xo_48Wn3REnxUdT8pBd--27" value="-" style="text;html=1;align=center;verticalAlign=middle;whiteSpace=wrap;rounded=0;" parent="1" vertex="1">
          <mxGeometry x="310" y="230" width="40" height="30" as="geometry" />
        </mxCell>
        <mxCell id="Xo_48Wn3REnxUdT8pBd--28" value="" style="endArrow=classic;html=1;rounded=0;" parent="1" edge="1">
          <mxGeometry width="50" height="50" relative="1" as="geometry">
            <mxPoint x="220" y="300" as="sourcePoint" />
            <mxPoint x="340" y="290" as="targetPoint" />
          </mxGeometry>
        </mxCell>
        <mxCell id="Xo_48Wn3REnxUdT8pBd--29" value="" style="shape=note2;boundedLbl=1;whiteSpace=wrap;html=1;size=25;verticalAlign=top;align=center;fillColor=#fff2cc;strokeColor=#d6b656;" parent="1" vertex="1">
          <mxGeometry x="70" y="300" width="220" height="80" as="geometry" />
        </mxCell>
        <mxCell id="Xo_48Wn3REnxUdT8pBd--30" value="El residuo de dividir entre &#xa;10 es la cifra menos significativa " style="resizeWidth=1;part=1;strokeColor=none;fillColor=none;align=left;spacingLeft=5;" parent="Xo_48Wn3REnxUdT8pBd--29" vertex="1">
          <mxGeometry width="180" height="60" relative="1" as="geometry" />
        </mxCell>
        <mxCell id="Xo_48Wn3REnxUdT8pBd--31" value="La segunda cifra menos significativa.&lt;div&gt;1) Dividir el número entre 10&lt;/div&gt;&lt;div&gt;2) Al cociente se la la cifra menos significativa&lt;/div&gt;" style="text;html=1;align=center;verticalAlign=middle;whiteSpace=wrap;rounded=0;" parent="1" vertex="1">
          <mxGeometry x="130" y="390" width="310" height="100" as="geometry" />
        </mxCell>
        <mxCell id="Xo_48Wn3REnxUdT8pBd--32" value="" style="endArrow=classic;html=1;rounded=0;exitX=0.5;exitY=1;exitDx=0;exitDy=0;exitPerimeter=0;" parent="1" source="Xo_48Wn3REnxUdT8pBd--33" target="Xo_48Wn3REnxUdT8pBd--4" edge="1">
          <mxGeometry width="50" height="50" relative="1" as="geometry">
            <mxPoint x="500" y="250" as="sourcePoint" />
            <mxPoint x="520" y="240" as="targetPoint" />
          </mxGeometry>
        </mxCell>
        <mxCell id="Xo_48Wn3REnxUdT8pBd--33" value="" style="shape=note2;boundedLbl=1;whiteSpace=wrap;html=1;size=25;verticalAlign=top;align=center;fillColor=#fff2cc;strokeColor=#d6b656;" parent="1" vertex="1">
          <mxGeometry x="470" y="20" width="220" height="80" as="geometry" />
        </mxCell>
        <mxCell id="Xo_48Wn3REnxUdT8pBd--34" value="Cociente entero" style="resizeWidth=1;part=1;strokeColor=none;fillColor=none;align=left;spacingLeft=5;" parent="Xo_48Wn3REnxUdT8pBd--33" vertex="1">
          <mxGeometry width="180" height="60" relative="1" as="geometry" />
        </mxCell>
        <mxCell id="hj_b9ohx-AZNkR4eY5d1-1" value="" style="endArrow=none;html=1;rounded=0;" edge="1" parent="1">
          <mxGeometry width="50" height="50" relative="1" as="geometry">
            <mxPoint x="500" y="235" as="sourcePoint" />
            <mxPoint x="500" y="155" as="targetPoint" />
          </mxGeometry>
        </mxCell>
        <mxCell id="hj_b9ohx-AZNkR4eY5d1-2" value="" style="endArrow=none;html=1;rounded=0;" edge="1" parent="1" source="hj_b9ohx-AZNkR4eY5d1-5">
          <mxGeometry width="50" height="50" relative="1" as="geometry">
            <mxPoint x="500" y="195" as="sourcePoint" />
            <mxPoint x="610" y="195" as="targetPoint" />
          </mxGeometry>
        </mxCell>
        <mxCell id="hj_b9ohx-AZNkR4eY5d1-3" value="10" style="text;html=1;align=center;verticalAlign=middle;whiteSpace=wrap;rounded=0;" vertex="1" parent="1">
          <mxGeometry x="505" y="165" width="60" height="30" as="geometry" />
        </mxCell>
        <mxCell id="hj_b9ohx-AZNkR4eY5d1-4" value="" style="endArrow=none;html=1;rounded=0;" edge="1" parent="1" target="hj_b9ohx-AZNkR4eY5d1-5">
          <mxGeometry width="50" height="50" relative="1" as="geometry">
            <mxPoint x="500" y="195" as="sourcePoint" />
            <mxPoint x="610" y="195" as="targetPoint" />
          </mxGeometry>
        </mxCell>
        <mxCell id="hj_b9ohx-AZNkR4eY5d1-5" value="&lt;font color=&quot;#008f00&quot;&gt;&lt;b&gt;17&lt;/b&gt;&lt;/font&gt;" style="text;html=1;align=center;verticalAlign=middle;whiteSpace=wrap;rounded=0;" vertex="1" parent="1">
          <mxGeometry x="500" y="195" width="110" height="30" as="geometry" />
        </mxCell>
        <mxCell id="hj_b9ohx-AZNkR4eY5d1-6" value="" style="endArrow=none;html=1;rounded=0;exitX=0;exitY=0;exitDx=0;exitDy=0;entryX=1;entryY=0;entryDx=0;entryDy=0;" edge="1" parent="1" source="hj_b9ohx-AZNkR4eY5d1-5" target="hj_b9ohx-AZNkR4eY5d1-5">
          <mxGeometry width="50" height="50" relative="1" as="geometry">
            <mxPoint x="640" y="275" as="sourcePoint" />
            <mxPoint x="690" y="225" as="targetPoint" />
          </mxGeometry>
        </mxCell>
        <mxCell id="hj_b9ohx-AZNkR4eY5d1-7" value="&lt;b&gt;&lt;font color=&quot;#ff2d0d&quot;&gt;2&lt;/font&gt;&lt;/b&gt;" style="text;html=1;align=center;verticalAlign=middle;whiteSpace=wrap;rounded=0;" vertex="1" parent="1">
          <mxGeometry x="440" y="190" width="24.5" height="30" as="geometry" />
        </mxCell>
        <mxCell id="hj_b9ohx-AZNkR4eY5d1-8" value="" style="ellipse;whiteSpace=wrap;html=1;fillColor=none;dashed=1;" vertex="1" parent="1">
          <mxGeometry x="464.5" y="132.5" width="175" height="145" as="geometry" />
        </mxCell>
        <mxCell id="hj_b9ohx-AZNkR4eY5d1-9" value="" style="shape=note2;boundedLbl=1;whiteSpace=wrap;html=1;size=25;verticalAlign=top;align=center;fillColor=#fff2cc;strokeColor=#d6b656;" vertex="1" parent="1">
          <mxGeometry x="660" y="310" width="220" height="180" as="geometry" />
        </mxCell>
        <mxCell id="hj_b9ohx-AZNkR4eY5d1-10" value="Se repite la división entre 10 con &#xa;el cociente del paso anterior&#xa;y el nuevo residuo es la siguiente &#xa;cifra menos significativa.&#xa;&#xa;Esta idea se repite hasta que &#xa;el cociente sea cero y se saquen&#xa;todas las cifras significativas&#xa;" style="resizeWidth=1;part=1;strokeColor=none;fillColor=none;align=left;spacingLeft=5;" vertex="1" parent="hj_b9ohx-AZNkR4eY5d1-9">
          <mxGeometry width="180" height="130" relative="1" as="geometry" />
        </mxCell>
        <mxCell id="hj_b9ohx-AZNkR4eY5d1-11" value="" style="endArrow=classic;html=1;rounded=0;exitX=0;exitY=0.5;exitDx=0;exitDy=0;entryX=0.5;entryY=1;entryDx=0;entryDy=0;" edge="1" parent="1" source="hj_b9ohx-AZNkR4eY5d1-10" target="hj_b9ohx-AZNkR4eY5d1-5">
          <mxGeometry width="50" height="50" relative="1" as="geometry">
            <mxPoint x="685" y="343.71000000000004" as="sourcePoint" />
            <mxPoint x="700" y="200" as="targetPoint" />
          </mxGeometry>
        </mxCell>
      </root>
    </mxGraphModel>
  </diagram>
</mxfile>
